<svg width="28" height="28" viewBox="0 0 28 28" fill="none" xmlns="http://www.w3.org/2000/svg">
<path d="M11.125 0.3125C10.6375 0.3125 10.1313 0.48125 9.775 0.8375C9.41875 1.19375 9.25 1.7 9.25 2.1875V3.125H0.8125V21.875H11.3125C11.1906 21.275 11.125 20.6469 11.125 20H2.6875V13.85C3.24062 14.1688 3.87812 14.375 4.5625 14.375H13.0094C13.5344 13.6625 14.1719 13.025 14.8844 12.5H4.5625C3.44687 12.5 2.6875 11.7406 2.6875 10.625V5H23.3125V10.625C23.3125 10.775 23.3031 10.9156 23.275 11.0469C23.95 11.2531 24.5875 11.5344 25.1875 11.8813V3.125H16.75V2.1875C16.75 1.7 16.5813 1.19375 16.225 0.8375C15.8688 0.48125 15.3625 0.3125 14.875 0.3125H11.125ZM11.125 2.1875H14.875V3.125H11.125V2.1875ZM6.4375 8.75V11.5625H8.3125V8.75H6.4375ZM17.6875 8.75V11.0562C18.298 10.8655 18.9262 10.7367 19.5625 10.6719V8.75H17.6875ZM20.5 12.5C16.3656 12.5 13 15.8656 13 20C13 24.1344 16.3656 27.5 20.5 27.5C24.6344 27.5 28 24.1344 28 20C28 15.8656 24.6344 12.5 20.5 12.5ZM20.5 14.375C23.6125 14.375 26.125 16.8875 26.125 20C26.125 23.1125 23.6125 25.625 20.5 25.625C17.3875 25.625 14.875 23.1125 14.875 20C14.875 16.8875 17.3875 14.375 20.5 14.375ZM19.5625 15.3125V20.9375H24.25V19.0625H21.4375V15.3125H19.5625Z" fill="#0073BA"/>
</svg>
