<svg width="25" height="26" viewBox="0 0 25 26" fill="none" xmlns="http://www.w3.org/2000/svg">
<path d="M3.97727 0.5L3.62159 0.961364L0 5.79091V25.5H25V5.79091L21.3773 0.961364L21.0227 0.5H3.97727ZM5.11364 2.77273H11.3636V5.04545H3.40909L5.11364 2.77273ZM13.6364 2.77273H19.8864L21.5909 5.04545H13.6364V2.77273ZM2.27273 7.31818H22.7273V23.2273H2.27273V7.31818ZM8.87841 9.59091C8.25227 9.64773 7.78977 10.208 7.84773 10.8341C7.90568 11.4591 8.46477 11.9216 9.09091 11.8636H15.9091C16.3182 11.8682 16.6989 11.6545 16.908 11.3C17.0083 11.1258 17.0611 10.9283 17.0611 10.7273C17.0611 10.5262 17.0083 10.3288 16.908 10.1545C16.6989 9.8 16.317 9.58636 15.9091 9.59091H8.87727H8.87841Z" fill="#0073BA"/>
</svg>
