<svg width="30" height="25" viewBox="0 0 30 25" fill="none" xmlns="http://www.w3.org/2000/svg">
<path d="M8.64354 0.5L9.29238 2.07143C9.6969 3.04857 10.2466 5.49086 10.1199 6.64286C8.54904 7.60286 7.58557 8.54 6.84223 9.32171C5.93408 8.59371 4.13737 7.35714 1.15247 7.35714H0V8.5C0 10.6874 0.796358 12.4646 1.08102 13.0714C0.792901 13.6737 0 15.388 0 17.6429V18.7857H1.15247C4.11433 18.7857 5.93293 17.5446 6.84338 16.8211C8.20675 18.2143 10.151 19.6829 12.6057 20.7857C12.4974 21.4954 12.4121 22.4863 12.7129 23.6429L12.9296 24.5H13.8297C15.2518 24.5 16.4769 23.7994 17.4669 23.1789C18.2771 22.6691 18.6689 22.3126 18.8717 22.1423C23.4551 21.9823 26.3812 19.5309 27.9474 17.1069C29.5678 14.6029 29.9643 12.1069 29.9643 12.1069L30 11.8211L29.8928 11.5354C29.8928 11.5354 27.2537 4.348 20.0968 3.99943C19.3362 3.08514 18.2724 2.32629 16.7834 1.71371C15.0225 0.991428 12.8074 0.5 10.3722 0.5H8.64354ZM11.9926 2.92857C13.447 3.08857 14.807 3.38 15.8822 3.82114C17.3551 4.42457 18.3808 5.28971 18.6193 5.67829L18.9443 6.21429H19.592C25.3498 6.21429 27.4208 11.62 27.5879 12.0714C27.5072 12.4909 27.173 14.0851 26.0032 15.8931C24.6652 17.9594 22.4997 19.9286 18.4396 19.9286H18.0074L17.6835 20.2143C17.6835 20.2143 17.075 20.7286 16.2429 21.2497C15.805 21.5229 15.4328 21.572 14.9821 21.7503C15.0282 21.228 14.9821 20.4646 14.9821 20.4646L15.2345 19.4646L14.2976 19.1423C11.444 18.0623 9.01694 16.0269 7.77919 14.6074L6.98629 13.6783L6.12193 14.5354C6.12193 14.5354 4.58684 15.6029 2.59306 16.1069C2.8904 14.7674 3.34908 13.572 3.34908 13.572L3.60148 13.0714L3.34908 12.5709C3.34908 12.5709 2.85006 11.2589 2.55734 9.85657C4.68134 10.3217 6.12193 11.6074 6.12193 11.6074L6.98629 12.4646L7.77919 11.5354C8.81065 10.38 11.5881 7.5 15.6667 6.964L15.3417 4.71371C14.2388 4.85771 13.2765 5.17429 12.3533 5.53657C12.2946 4.57657 12.245 3.75029 11.9926 2.92857ZM22.4732 10.7857C22.0147 10.7857 21.575 10.9663 21.2508 11.2878C20.9266 11.6093 20.7445 12.0453 20.7445 12.5C20.7445 12.9547 20.9266 13.3907 21.2508 13.7122C21.575 14.0337 22.0147 14.2143 22.4732 14.2143C22.9317 14.2143 23.3714 14.0337 23.6956 13.7122C24.0198 13.3907 24.2019 12.9547 24.2019 12.5C24.2019 12.0453 24.0198 11.6093 23.6956 11.2878C23.3714 10.9663 22.9317 10.7857 22.4732 10.7857Z" fill="#0073BA"/>
</svg>
