<svg width="35" height="17" viewBox="0 0 35 17" fill="none" xmlns="http://www.w3.org/2000/svg">
<path d="M27.125 0.500034C25.025 0.500034 23.0417 1.33275 21.6271 2.77512L11.375 12.0539C10.4417 13.0056 9.20208 13.526 7.875 13.526C5.14792 13.526 2.91667 11.2807 2.91667 8.50002C2.91667 5.71935 5.14792 3.47401 7.875 3.47401C9.20208 3.47401 10.4417 3.99445 11.4333 5.0056L13.0813 6.49259L15.3125 4.50003L13.4458 2.84947C12.7155 2.10201 11.8472 1.50953 10.891 1.10626C9.93483 0.703002 8.90975 0.496956 7.875 0.500034C3.52917 0.500034 0 4.09854 0 8.50002C0 12.9015 3.52917 16.5 7.875 16.5C9.975 16.5 11.9583 15.6673 13.3729 14.2249L23.625 4.94612C24.5583 3.99445 25.7979 3.47401 27.125 3.47401C29.8521 3.47401 32.0833 5.71935 32.0833 8.50002C32.0833 11.2807 29.8521 13.526 27.125 13.526C25.8125 13.526 24.5583 13.0056 23.5667 11.9944L21.875 10.4926L19.6875 12.4851L21.5542 14.1506C22.2864 14.8943 23.1554 15.4833 24.1114 15.8839C25.0674 16.2846 26.0915 16.4889 27.125 16.4851C31.4708 16.4851 35 12.9015 35 8.50002C35 4.03906 31.4708 0.500034 27.125 0.500034Z" fill="#0073BA"/>
</svg>
