<svg width="16" height="16" viewBox="0 0 16 16" fill="none" xmlns="http://www.w3.org/2000/svg">
<path d="M14.0177 10.7235L11.901 10.4818C11.3927 10.4235 10.8927 10.5985 10.5344 10.9568L9.00104 12.4901C6.64271 11.2901 4.70938 9.36514 3.50938 6.99847L5.05104 5.4568C5.40938 5.09847 5.58438 4.59847 5.52604 4.09014L5.28438 1.99014C5.18438 1.14847 4.47604 0.515137 3.62604 0.515137H2.18438C1.24271 0.515137 0.459376 1.29847 0.51771 2.24014C0.959376 9.3568 6.65104 15.0401 13.7594 15.4818C14.701 15.5401 15.4844 14.7568 15.4844 13.8151V12.3735C15.4927 11.5318 14.8594 10.8235 14.0177 10.7235Z" fill="#0073BA"/>
</svg>
